<svg width="231" height="289" viewBox="0 0 231 289" fill="none" xmlns="http://www.w3.org/2000/svg">
<path fill-rule="evenodd" clip-rule="evenodd" d="M123.92 1.44921C184.051 30.8395 213.511 81.548 224.38 135.365C234.898 187.438 228.003 242.403 214.639 283.699C214.615 282.745 214.577 281.652 214.515 280.437C214.277 275.753 213.696 269.264 212.326 262.044C209.589 247.621 203.686 230.203 190.988 218.47C178.435 206.871 171.279 197.261 167.911 186.801C164.542 176.339 164.941 164.958 167.641 149.763L166.657 149.588C163.947 164.835 163.515 176.411 166.959 187.107C170.403 197.805 177.702 207.556 190.31 219.205C202.773 230.721 208.621 247.884 211.343 262.23C212.703 269.395 213.28 275.837 213.516 280.488C213.634 282.813 213.668 284.689 213.671 285.983C213.672 286.22 213.672 286.437 213.671 286.633C213.578 286.908 213.486 287.182 213.393 287.455C144.495 279.139 97.8131 264.527 65.2231 233.65C32.5696 202.712 13.9799 155.367 1.49302 81.3709L0.506958 81.5373C13.0035 155.591 31.6386 203.208 64.5354 234.375C97.4324 265.543 144.508 280.183 213.676 288.496L214.078 288.545L214.209 288.162C214.226 288.109 214.244 288.057 214.262 288.004C214.649 288.018 214.649 288.018 214.649 288.017L214.649 288.015L214.649 288.009L214.65 287.982L214.653 287.881C214.655 287.792 214.659 287.66 214.662 287.487C214.665 287.304 214.668 287.073 214.67 286.8C228.675 245.077 236.157 188.622 225.361 135.167C214.443 81.1129 184.826 30.1054 124.359 0.550781L123.92 1.44921Z" fill="black"/>
</svg>
