<svg width="620" height="412" viewBox="0 0 620 412" fill="none" xmlns="http://www.w3.org/2000/svg">
<path d="M2 58.8079C168.837 -74.0761 219.347 228.521 452 58.8079" stroke="#46AEF7" stroke-width="5"/>
<path d="M28 54.8164C194.837 -143 245.347 307.457 478 54.8164" stroke="#16D9E3" stroke-opacity="0.2" stroke-width="5"/>
<path d="M142 333.808C308.837 200.924 359.347 503.521 592 333.808" stroke="#46AEF7" stroke-width="5"/>
<path d="M168 329.816C334.837 132 385.347 582.457 618 329.816" stroke="#16D9E3" stroke-opacity="0.2" stroke-width="5"/>
<path d="M84 237.808C250.837 104.924 301.347 407.521 534 237.808" stroke="#46AEF7" stroke-width="5"/>
<path d="M110 233.816C276.837 36.0003 327.347 486.457 560 233.816" stroke="#16D9E3" stroke-opacity="0.2" stroke-width="5"/>
<path d="M50 145.808C216.837 12.9239 267.347 315.521 500 145.808" stroke="#46AEF7" stroke-width="5"/>
<path d="M76 141.816C242.837 -55.9997 293.347 394.457 526 141.816" stroke="#16D9E3" stroke-opacity="0.2" stroke-width="5"/>
</svg>
